<?xml version="1.0" encoding="utf-8"?>
<!-- Generator: Moho 12.5 build 22438 -->
<!DOCTYPE svg PUBLIC "-//W3C//DTD SVG 1.1//EN" "http://www.w3.org/Graphics/SVG/1.1/DTD/svg11.dtd">
<svg version="1.1" id="Frame_0" xmlns="http://www.w3.org/2000/svg" xmlns:xlink="http://www.w3.org/1999/xlink" width="1920px" height="1080px">
<g id="Layer_5">
<g id="Layer_4">
<path fill="#bcbcbc" fill-rule="evenodd" stroke="#000000" stroke-width="4" stroke-linecap="round" stroke-linejoin="round" d="M 1189.485 294.230 C 1130.612 314.146 1045.738 314.693 983.669 317.873 C 949.520 319.622 903.805 319.654 869.693 317.295 C 847.991 315.794 819.180 311.912 797.767 308.070 C 775.349 304.048 744.973 299.334 723.811 290.911 C 715.422 287.573 703.573 283.001 697.479 276.340 C 696.834 275.635 696.221 274.467 695.927 273.558 C 695.309 271.649 695.347 266.896 695.347 266.896 C 695.731 264.309 693.129 260.702 694.091 258.271 C 695.892 253.717 703.203 251.266 707.594 249.097 C 727.077 239.474 755.898 233.361 777.196 229.050 C 796.648 225.112 823.090 222.716 842.871 221.100 C 875.714 218.415 919.680 217.057 952.632 216.863 C 975.116 216.731 1005.104 217.492 1027.556 218.695 C 1049.743 219.884 1079.297 222.219 1101.365 224.801 C 1124.689 227.530 1156.059 230.531 1178.756 236.560 C 1191.545 239.957 1208.803 245.056 1220.086 251.971 C 1222.191 253.261 1225.415 254.983 1226.402 257.246 C 1226.797 258.152 1226.565 259.555 1226.484 260.540 C 1226.081 265.460 1223.739 271.735 1222.868 276.594 C 1222.868 276.594 1200.214 290.600 1189.485 294.230 Z"/>
<path fill="#717171" fill-rule="evenodd" stroke="#000000" stroke-width="4" stroke-opacity="0.000000" stroke-linecap="round" stroke-linejoin="round" d="M 768.393 282.228 C 799.163 288.591 840.650 295.076 871.931 298.043 C 909.943 301.649 960.953 303.381 999.126 302.536 C 1027.576 301.907 1065.500 299.072 1093.707 295.307 C 1111.827 292.889 1135.791 288.220 1153.610 284.136 C 1165.757 281.352 1182.003 277.572 1193.719 273.325 C 1197.434 271.979 1202.479 270.195 1205.765 268.000 C 1206.954 267.206 1209.200 266.242 1209.310 264.817 C 1209.596 261.110 1202.895 258.872 1199.656 257.048 C 1184.615 248.576 1161.487 243.979 1144.664 240.108 C 1135.650 238.034 1123.404 236.360 1114.235 235.142 C 1087.966 231.650 1052.760 228.286 1026.310 226.660 C 1008.253 225.550 984.123 224.876 966.032 224.903 C 942.624 224.939 911.384 225.679 888.050 227.538 C 867.852 229.147 841.063 232.866 821.028 235.886 C 804.186 238.426 781.794 242.286 765.117 245.743 C 755.004 247.839 741.218 249.855 731.610 253.642 C 727.363 255.315 721.756 257.997 718.247 260.917 C 717.414 261.609 715.939 262.539 715.853 263.619 C 715.725 265.236 717.783 266.964 719.044 267.984 C 722.580 270.844 728.865 272.033 733.205 273.388 C 735.385 274.069 738.371 274.698 740.585 275.259 C 740.585 275.259 740.585 275.259 740.585 275.259 C 740.611 275.228 759.970 280.486 768.393 282.228 Z"/>
</g>
</g>
<g id="Layer_4">
<g id="Layer_1">
<clipPath id="d0118687-7983-471a-b264-4527dea9f23e">
<path fill="#bcbcbc" fill-rule="evenodd" stroke="none" d="M 1226.435 256.830 C 1226.435 256.830 1226.435 256.830 1226.435 256.830 C 1220.367 361.354 1212.905 500.757 1206.208 605.242 C 1202.275 666.615 1196.441 748.408 1191.989 809.745 C 1190.580 829.155 1189.381 855.103 1187.134 874.434 C 1186.425 880.524 1186.325 888.930 1184.102 894.644 C 1182.120 899.737 1178.023 906.106 1173.997 909.802 C 1166.357 916.816 1152.958 922.018 1143.176 925.465 C 1115.167 935.336 1075.296 939.936 1045.769 943.111 C 1010.549 946.897 963.132 948.772 927.757 946.938 C 881.078 944.517 816.770 942.734 773.495 925.068 C 762.966 920.770 748.443 913.513 741.784 904.293 C 740.053 901.895 739.175 897.878 738.504 894.998 C 734.920 879.610 735.380 858.263 734.130 842.512 C 732.173 817.834 729.730 784.916 727.963 760.224 C 722.879 689.162 716.812 594.363 711.990 523.283 C 706.601 443.845 699.336 337.933 693.912 258.497 C 693.912 258.497 693.912 258.497 693.912 258.497 C 705.442 261.329 720.686 265.690 732.344 267.937 C 753.186 271.953 781.318 275.547 802.464 277.376 C 857.100 282.101 930.351 283.694 985.182 282.770 C 1034.017 281.947 1099.275 279.223 1147.673 272.656 C 1171.555 269.416 1226.427 256.832 1226.435 256.830 C 1226.435 256.830 1226.435 256.830 1226.435 256.830 Z"/>
</clipPath>
<path fill="#bcbcbc" fill-rule="evenodd" stroke="#000000" stroke-width="4" stroke-linecap="round" stroke-linejoin="round" d="M 1226.435 256.830 C 1226.435 256.830 1226.435 256.830 1226.435 256.830 C 1220.367 361.354 1212.905 500.757 1206.208 605.242 C 1202.275 666.615 1196.441 748.408 1191.989 809.745 C 1190.580 829.155 1189.381 855.103 1187.134 874.434 C 1186.425 880.524 1186.325 888.930 1184.102 894.644 C 1182.120 899.737 1178.023 906.106 1173.997 909.802 C 1166.357 916.816 1152.958 922.018 1143.176 925.465 C 1115.167 935.336 1075.296 939.936 1045.769 943.111 C 1010.549 946.897 963.132 948.772 927.757 946.938 C 881.078 944.517 816.770 942.734 773.495 925.068 C 762.966 920.770 748.443 913.513 741.784 904.293 C 740.053 901.895 739.175 897.878 738.504 894.998 C 734.920 879.610 735.380 858.263 734.130 842.512 C 732.173 817.834 729.730 784.916 727.963 760.224 C 722.879 689.162 716.812 594.363 711.990 523.283 C 706.601 443.845 699.336 337.933 693.912 258.497 C 693.912 258.497 693.912 258.497 693.912 258.497 C 705.442 261.329 720.686 265.690 732.344 267.937 C 753.186 271.953 781.318 275.547 802.464 277.376 C 857.100 282.101 930.351 283.694 985.182 282.770 C 1034.017 281.947 1099.275 279.223 1147.673 272.656 C 1171.555 269.416 1226.427 256.832 1226.435 256.830 C 1226.435 256.830 1226.435 256.830 1226.435 256.830 Z"/>
</g>
<g id="Layer_2">
<path fill="#999999" fill-rule="evenodd" stroke="none" d="M 1235.298 299.167 C 1235.298 299.167 1235.298 299.167 1235.298 299.167 C 1223.451 304.189 1208.097 312.093 1195.807 315.908 C 1178.401 321.311 1154.240 325.069 1136.192 327.611 C 1112.718 330.918 1081.125 333.077 1057.444 334.174 C 1010.638 336.341 948.081 336.594 901.258 334.830 C 861.001 333.313 807.100 331.082 767.385 324.330 C 750.580 321.473 728.064 316.937 712.260 310.549 C 703.845 307.147 693.749 300.261 685.815 295.851 C 685.815 295.851 685.815 295.851 685.815 295.851 C 685.815 280.761 685.815 245.554 685.815 245.549 C 695.247 247.750 707.704 251.272 717.254 252.885 C 772.012 262.131 846.214 266.226 901.696 268.604 C 961.689 271.176 1042.022 273.662 1101.857 268.604 C 1143.350 265.097 1238.812 246.117 1238.826 246.115 C 1237.767 262.030 1235.298 299.162 1235.298 299.167 C 1235.298 299.167 1235.298 299.167 1235.298 299.167 Z" clip-path="url(#d0118687-7983-471a-b264-4527dea9f23e)"/>
<path fill="none" stroke="#000000" stroke-width="4" stroke-linecap="round" stroke-linejoin="round" d="M 685.815 245.549 C 685.815 245.549 685.815 245.549 685.815 245.549 C 685.815 245.554 685.815 280.761 685.815 295.851 C 693.749 300.261 703.845 307.147 712.260 310.549 C 728.064 316.937 750.580 321.473 767.385 324.330 C 807.100 331.082 861.001 333.313 901.258 334.830 C 948.081 336.594 1010.638 336.341 1057.444 334.174 C 1081.125 333.077 1112.718 330.918 1136.192 327.611 C 1154.240 325.069 1178.401 321.311 1195.807 315.908 C 1208.097 312.093 1223.451 304.189 1235.298 299.167 C 1235.298 299.167 1235.298 299.167 1235.298 299.167 C 1235.298 299.162 1237.767 262.030 1238.826 246.115 C 1238.826 246.115 1238.826 246.115 1238.826 246.115 C 1238.812 246.117 1143.350 265.097 1101.857 268.604 C 1042.022 273.662 961.689 271.176 901.696 268.604 C 846.214 266.226 772.012 262.131 717.254 252.885 C 707.704 251.272 695.247 247.750 685.815 245.549 M 685.815 295.851 C 685.815 295.851 685.815 295.851 685.815 295.851 M 1235.298 299.167 C 1235.298 299.167 1235.298 299.167 1235.298 299.167 " clip-path="url(#d0118687-7983-471a-b264-4527dea9f23e)"/>
<path fill="#9c9c9c" fill-rule="evenodd" stroke="#000000" stroke-width="4" stroke-linecap="round" stroke-linejoin="round" d="M 1138.139 451.137 C 1137.452 464.358 1136.799 481.999 1136.148 495.223 C 1133.321 552.621 1128.810 629.114 1125.724 686.499 C 1123.761 722.990 1121.017 771.638 1119.260 808.140 C 1118.356 826.946 1117.229 852.025 1116.519 870.840 C 1116.404 873.899 1115.691 878.017 1116.180 881.040 C 1116.546 883.300 1117.417 886.364 1118.747 888.227 C 1120.984 891.361 1125.357 894.726 1129.015 895.928 C 1132.234 896.986 1137.140 897.125 1140.309 895.928 C 1142.912 894.945 1145.804 892.206 1147.357 889.896 C 1148.485 888.218 1149.131 885.504 1149.592 883.535 C 1150.902 877.933 1151.029 870.186 1151.483 864.451 C 1152.583 850.546 1153.322 831.958 1154.062 818.030 C 1154.962 801.095 1156.055 778.509 1156.921 761.573 C 1158.951 721.894 1161.795 668.996 1163.768 629.315 C 1165.947 585.487 1168.628 527.039 1170.729 483.207 C 1171.728 462.377 1172.996 434.599 1174.075 413.772 C 1174.573 404.169 1175.913 391.382 1175.834 381.765 C 1175.805 378.277 1176.459 373.384 1175.130 370.158 C 1173.792 366.910 1170.389 363.201 1167.392 361.365 C 1165.324 360.098 1162.030 359.244 1159.605 359.194 C 1156.542 359.130 1152.231 359.934 1149.691 361.648 C 1147.563 363.084 1145.755 366.232 1144.587 368.519 C 1143.770 370.120 1143.281 372.504 1142.722 374.212 C 1142.722 374.212 1142.722 374.212 1142.722 374.212 C 1142.712 374.251 1139.339 428.049 1138.139 451.137 Z" clip-path="url(#d0118687-7983-471a-b264-4527dea9f23e)"/>
<path fill="#9c9c9c" fill-rule="evenodd" stroke="#000000" stroke-width="4" stroke-linecap="round" stroke-linejoin="round" d="M 1045.014 456.665 C 1044.690 470.015 1044.547 487.821 1044.262 501.172 C 1043.026 559.128 1040.563 636.382 1039.041 694.330 C 1038.073 731.179 1036.644 780.308 1035.903 817.163 C 1035.521 836.150 1035.100 861.468 1034.933 880.459 C 1034.906 883.547 1034.264 887.729 1034.893 890.752 C 1035.368 893.040 1036.469 896.106 1037.944 897.919 C 1040.540 901.111 1045.498 904.267 1049.464 905.363 C 1053.050 906.354 1058.392 906.359 1061.861 905.013 C 1064.609 903.946 1067.750 901.155 1069.400 898.713 C 1070.553 897.008 1071.204 894.241 1071.647 892.231 C 1072.896 886.560 1072.790 878.729 1073.102 872.932 C 1073.857 858.883 1074.063 840.117 1074.423 826.052 C 1074.860 808.952 1075.325 786.149 1075.725 769.047 C 1076.663 728.982 1078.064 675.566 1078.939 635.499 C 1079.906 591.247 1080.948 532.239 1081.828 487.985 C 1082.247 466.954 1082.735 438.910 1083.243 417.881 C 1083.477 408.183 1084.532 395.251 1084.132 385.559 C 1083.987 382.041 1084.496 377.058 1082.983 373.879 C 1081.395 370.546 1077.461 366.992 1074.204 365.254 C 1071.865 364.007 1068.236 363.282 1065.586 363.307 C 1062.240 363.338 1057.556 364.214 1054.784 366.089 C 1052.573 367.584 1050.622 370.799 1049.405 373.174 C 1048.572 374.800 1048.101 377.232 1047.543 378.972 C 1047.543 378.972 1047.543 378.972 1047.543 378.972 C 1047.534 379.011 1045.580 433.352 1045.014 456.665 Z" clip-path="url(#d0118687-7983-471a-b264-4527dea9f23e)"/>
<path fill="#9c9c9c" fill-rule="evenodd" stroke="#000000" stroke-width="4" stroke-linecap="round" stroke-linejoin="round" d="M 939.670 459.351 C 939.648 472.705 939.938 490.509 939.959 503.864 C 940.050 561.832 939.267 639.122 939.042 697.090 C 938.898 733.952 938.553 783.101 938.660 819.962 C 938.716 838.953 938.888 864.275 939.181 883.264 C 939.228 886.352 938.635 890.563 939.395 893.556 C 939.982 895.864 941.339 898.902 942.956 900.651 C 945.971 903.913 951.579 906.828 955.906 907.832 C 959.922 908.764 965.783 908.674 969.632 907.199 C 972.556 906.078 976.029 903.296 977.825 900.730 C 979.017 899.026 979.709 896.231 980.150 894.198 C 981.382 888.522 981.077 880.675 981.276 874.871 C 981.758 860.810 981.514 842.043 981.558 827.973 C 981.612 810.867 981.552 788.059 981.565 770.953 C 981.594 730.878 981.800 677.443 981.761 637.368 C 981.717 593.105 981.384 534.088 981.244 489.825 C 981.178 468.790 981.013 440.743 981.045 419.707 C 981.060 410.007 981.902 397.049 981.216 387.373 C 980.967 383.855 981.329 378.823 979.648 375.723 C 977.784 372.286 973.252 368.944 969.705 367.300 C 967.050 366.069 963.034 365.463 960.109 365.549 C 956.428 365.656 951.289 366.553 948.211 368.576 C 945.895 370.098 943.734 373.335 942.431 375.781 C 941.564 377.409 941.089 379.869 940.514 381.620 C 940.514 381.620 940.514 381.620 940.514 381.620 C 940.507 381.660 939.710 436.030 939.670 459.351 Z" clip-path="url(#d0118687-7983-471a-b264-4527dea9f23e)"/>
<path fill="#9c9c9c" fill-rule="evenodd" stroke="#000000" stroke-width="4" stroke-linecap="round" stroke-linejoin="round" d="M 838.058 456.282 C 838.394 469.744 839.163 487.684 839.543 501.144 C 841.191 559.574 842.485 637.504 843.817 695.942 C 844.664 733.103 845.639 782.654 846.738 819.808 C 847.303 838.950 848.156 864.470 848.959 883.603 C 849.089 886.714 848.608 890.973 849.450 893.971 C 850.098 896.279 851.532 899.305 853.200 901.027 C 856.297 904.222 861.979 907.019 866.338 907.914 C 870.376 908.743 876.237 908.491 880.042 906.904 C 882.942 905.695 886.334 902.789 888.058 900.161 C 889.208 898.409 889.821 895.574 890.207 893.514 C 891.286 887.758 890.770 879.858 890.813 874.002 C 890.917 859.815 890.170 840.904 889.835 826.721 C 889.429 809.477 888.757 786.488 888.310 769.245 C 887.263 728.847 886.033 674.980 884.917 634.584 C 883.683 589.968 881.764 530.488 880.436 485.875 C 879.804 464.673 878.885 436.405 878.352 415.200 C 878.107 405.422 878.600 392.338 877.655 382.603 C 877.311 379.064 877.545 373.985 875.774 370.902 C 873.821 367.501 869.206 364.243 865.608 362.681 C 862.924 361.515 858.891 361.010 855.969 361.176 C 852.290 361.384 847.175 362.434 844.157 364.549 C 841.875 366.148 839.808 369.472 838.572 371.969 C 837.749 373.634 837.341 376.125 836.813 377.907 C 836.813 377.907 836.813 377.907 836.813 377.907 C 836.807 377.947 837.472 432.774 838.058 456.282 Z" clip-path="url(#d0118687-7983-471a-b264-4527dea9f23e)"/>
<path fill="#9c9c9c" fill-rule="evenodd" stroke="#000000" stroke-width="4" stroke-linecap="round" stroke-linejoin="round" d="M 748.412 453.026 C 748.993 466.277 750.078 483.931 750.701 497.180 C 753.407 554.694 756.139 631.417 758.539 688.944 C 760.064 725.525 761.949 774.307 763.718 810.877 C 764.629 829.718 765.939 854.834 767.080 873.662 C 767.265 876.724 766.877 880.924 767.752 883.864 C 768.422 886.118 769.858 889.072 771.517 890.740 C 774.566 893.805 780.118 896.470 784.368 897.266 C 788.293 898.001 793.971 897.631 797.617 896.004 C 800.417 894.754 803.636 891.813 805.251 889.206 C 806.336 887.454 806.871 884.652 807.205 882.618 C 808.142 876.926 807.491 869.158 807.422 863.389 C 807.253 849.416 806.170 830.806 805.577 816.844 C 804.857 799.869 803.769 777.241 803.009 760.268 C 801.228 720.503 799.015 667.475 797.167 627.712 C 795.126 583.796 792.138 525.255 790.005 481.343 C 788.991 460.474 787.565 432.653 786.646 411.780 C 786.222 402.154 786.452 389.261 785.352 379.689 C 784.952 376.212 785.095 371.212 783.308 368.202 C 781.357 364.915 776.838 361.775 773.310 360.305 C 770.693 359.214 766.775 358.791 763.948 359.010 C 760.384 359.287 755.449 360.437 752.575 362.563 C 750.382 364.187 748.456 367.504 747.309 369.980 C 746.541 371.639 746.196 374.097 745.719 375.862 C 745.719 375.862 745.719 375.862 745.719 375.862 C 745.713 375.901 747.398 429.885 748.412 453.026 Z" clip-path="url(#d0118687-7983-471a-b264-4527dea9f23e)"/>
</g>
<g id="Layer_3">
<path fill="#bcbcbc" fill-rule="evenodd" fill-opacity="0.000000" stroke="#000000" stroke-width="4" stroke-linecap="round" stroke-linejoin="round" d="M 1226.435 256.830 C 1226.435 256.830 1226.435 256.830 1226.435 256.830 C 1220.367 361.353 1212.904 500.757 1206.208 605.242 C 1202.275 666.615 1196.441 748.408 1191.989 809.746 C 1190.580 829.156 1189.381 855.103 1187.134 874.434 C 1186.426 880.524 1186.325 888.930 1184.102 894.644 C 1182.121 899.737 1178.023 906.106 1173.997 909.802 C 1166.357 916.816 1152.958 922.018 1143.176 925.465 C 1115.167 935.336 1075.296 939.936 1045.769 943.111 C 1010.550 946.897 963.132 948.772 927.757 946.938 C 881.079 944.517 816.770 942.734 773.495 925.069 C 762.966 920.770 748.443 913.513 741.784 904.293 C 740.053 901.895 739.175 897.878 738.504 894.998 C 734.919 879.610 735.380 858.263 734.130 842.512 C 732.173 817.834 729.730 784.916 727.963 760.224 C 722.879 689.162 716.811 594.363 711.989 523.283 C 706.600 443.845 699.335 337.933 693.912 258.497 C 693.912 258.497 693.912 258.497 693.912 258.497 C 705.442 261.329 720.686 265.690 732.344 267.937 C 753.186 271.953 781.317 275.547 802.464 277.376 C 857.100 282.101 930.351 283.694 985.182 282.770 C 1034.017 281.947 1099.275 279.223 1147.673 272.656 C 1171.555 269.416 1226.427 256.832 1226.435 256.830 C 1226.435 256.830 1226.435 256.830 1226.435 256.830 Z" clip-path="url(#d0118687-7983-471a-b264-4527dea9f23e)"/>
</g>
</g>
<g id="Layer_5">
<g id="Layer_2">
<path fill="#989898" fill-rule="evenodd" stroke="none" d="M 661.999 185.816 C 662.136 205.659 662.318 232.117 662.455 251.960 C 662.456 251.962 670.582 261.061 674.931 263.860 C 680.083 267.176 688.095 269.484 693.933 271.346 C 710.502 276.630 733.293 281.334 750.403 284.454 C 764.304 286.989 783.035 289.210 797.078 290.776 C 818.295 293.142 846.665 295.630 867.978 296.850 C 891.482 298.196 922.879 298.968 946.421 299.077 C 968.249 299.178 997.361 298.646 1019.169 297.710 C 1048.061 296.470 1086.586 294.223 1115.337 291.124 C 1140.295 288.434 1173.644 284.538 1198.130 279.008 C 1209.927 276.344 1225.862 272.738 1236.775 267.523 C 1242.315 264.876 1249.102 260.135 1253.858 256.252 C 1255.623 254.811 1257.679 252.554 1259.317 250.969 C 1259.317 250.965 1259.670 221.011 1259.493 208.174 C 1259.385 200.299 1258.943 189.805 1258.707 181.933 C 1258.706 181.935 1250.127 193.667 1245.437 197.692 C 1237.988 204.083 1226.309 210.535 1217.237 214.280 C 1205.199 219.249 1187.888 222.251 1175.104 224.730 C 1153.711 228.880 1124.814 232.385 1103.123 234.476 C 1084.531 236.268 1059.631 237.332 1040.970 238.132 C 1026.201 238.765 1006.495 239.414 991.712 239.494 C 961.558 239.657 921.346 238.732 891.218 237.476 C 872.898 236.712 848.486 235.261 830.214 233.733 C 816.264 232.566 797.699 230.578 783.805 228.868 C 771.463 227.348 754.903 225.762 742.761 223.078 C 730.676 220.406 714.837 215.533 703.286 211.088 C 696.630 208.526 687.769 204.877 681.703 201.127 C 678.483 199.136 674.732 195.702 671.742 193.379 C 668.820 191.109 664.922 188.085 661.999 185.816 C 661.999 185.816 661.999 185.816 661.999 185.816 Z"/>
<path fill="none" stroke="#000000" stroke-width="4" stroke-opacity="0.000000" stroke-linecap="round" stroke-linejoin="round" d="M 662.455 251.960 C 662.455 251.960 662.455 251.960 662.455 251.960 C 662.318 232.117 662.136 205.659 661.999 185.816 C 661.999 185.816 661.999 185.816 661.999 185.816 C 664.922 188.085 668.820 191.109 671.742 193.379 C 674.732 195.702 678.483 199.136 681.703 201.127 C 687.769 204.877 696.630 208.526 703.286 211.088 C 714.837 215.533 730.676 220.406 742.761 223.078 C 754.903 225.762 771.463 227.348 783.805 228.868 C 797.699 230.578 816.264 232.566 830.214 233.733 C 848.486 235.261 872.898 236.712 891.218 237.476 C 921.346 238.732 961.558 239.657 991.712 239.494 C 1006.495 239.414 1026.201 238.765 1040.970 238.132 C 1059.631 237.332 1084.531 236.268 1103.123 234.476 C 1124.814 232.385 1153.711 228.880 1175.104 224.730 C 1187.888 222.251 1205.199 219.249 1217.237 214.280 C 1226.309 210.535 1237.988 204.083 1245.437 197.692 C 1250.127 193.667 1258.706 181.935 1258.707 181.933 C 1258.707 181.933 1258.707 181.933 1258.707 181.933 C 1258.943 189.805 1259.385 200.299 1259.493 208.174 C 1259.670 221.011 1259.317 250.965 1259.317 250.969 C 1259.317 250.969 1259.317 250.969 1259.317 250.969 C 1257.679 252.554 1255.623 254.811 1253.858 256.252 C 1249.102 260.135 1242.315 264.876 1236.775 267.523 C 1225.862 272.738 1209.927 276.344 1198.130 279.008 C 1173.644 284.538 1140.295 288.434 1115.337 291.124 C 1086.586 294.223 1048.061 296.470 1019.169 297.710 C 997.361 298.646 968.249 299.178 946.421 299.077 C 922.879 298.968 891.482 298.196 867.978 296.850 C 846.665 295.630 818.295 293.142 797.078 290.776 C 783.035 289.210 764.304 286.989 750.403 284.454 C 733.293 281.334 710.502 276.630 693.933 271.346 C 688.095 269.484 680.083 267.176 674.931 263.860 C 670.582 261.061 662.456 251.962 662.455 251.960 "/>
</g>
<g id="Layer_3">
<path fill="#bcbcbc" fill-rule="evenodd" stroke="none" d="M 1252.387 189.342 C 1254.691 186.256 1256.814 181.522 1258.711 178.170 C 1258.708 178.168 1240.382 166.282 1231.756 162.775 C 1217.442 156.956 1196.919 153.336 1181.719 150.563 C 1153.937 145.496 1116.333 142.271 1088.198 139.842 C 1068.935 138.179 1043.174 136.965 1023.865 135.969 C 1007.592 135.130 985.890 133.966 969.599 133.622 C 956.594 133.347 939.244 133.344 926.240 133.622 C 912.893 133.907 895.105 134.710 881.781 135.527 C 867.133 136.425 847.625 138.003 833.020 139.437 C 831.777 139.559 830.123 139.770 828.880 139.897 C 815.096 141.306 796.652 142.516 782.880 144.037 C 776.934 144.693 769.026 145.747 763.100 146.567 C 754.439 147.765 742.848 149.157 734.276 150.879 C 724.466 152.849 711.513 156.150 701.954 159.106 C 694.068 161.545 683.264 164.416 676.096 168.509 C 672.390 170.625 667.487 173.906 664.931 177.324 C 663.525 179.202 662.743 182.341 661.806 184.492 C 668.514 189.883 676.718 198.150 684.166 202.462 C 697.858 210.387 718.336 216.709 733.643 220.701 C 752.424 225.599 778.306 228.317 797.586 230.555 C 824.685 233.699 861.013 236.135 888.265 237.419 C 911.583 238.517 942.721 238.930 966.065 238.932 C 996.091 238.936 1036.155 238.618 1066.132 236.908 C 1090.254 235.533 1122.363 232.578 1146.327 229.497 C 1162.321 227.441 1183.681 224.551 1199.386 220.892 C 1205.379 219.495 1213.441 217.601 1219.067 215.107 C 1225.591 212.216 1233.749 207.088 1239.317 202.623 C 1243.678 199.126 1249.042 193.822 1252.387 189.342 M 661.806 184.492 C 661.806 184.492 661.806 184.492 661.806 184.492 Z"/>
<path fill="none" stroke="#000000" stroke-width="4" stroke-opacity="0.000000" stroke-linecap="round" stroke-linejoin="round" d="M 1258.711 178.170 C 1258.711 178.170 1258.711 178.170 1258.711 178.170 C 1256.814 181.522 1254.691 186.256 1252.387 189.342 C 1249.042 193.822 1243.678 199.126 1239.317 202.623 C 1233.749 207.088 1225.591 212.216 1219.067 215.107 C 1213.441 217.601 1205.379 219.495 1199.386 220.892 C 1183.681 224.551 1162.321 227.441 1146.327 229.497 C 1122.363 232.578 1090.254 235.533 1066.132 236.908 C 1036.155 238.618 996.091 238.936 966.065 238.932 C 942.721 238.930 911.583 238.517 888.265 237.419 C 861.013 236.135 824.685 233.699 797.586 230.555 C 778.306 228.317 752.424 225.599 733.643 220.701 C 718.336 216.709 697.858 210.387 684.166 202.462 C 676.718 198.150 668.514 189.883 661.806 184.492 C 661.806 184.492 661.806 184.492 661.806 184.492 C 662.743 182.341 663.525 179.202 664.931 177.324 C 667.487 173.906 672.390 170.625 676.096 168.509 C 683.264 164.416 694.068 161.545 701.954 159.106 C 711.513 156.150 724.466 152.849 734.276 150.879 C 742.848 149.157 754.439 147.765 763.100 146.567 C 769.026 145.747 776.934 144.693 782.880 144.037 C 796.652 142.516 815.096 141.306 828.880 139.897 C 830.123 139.770 831.777 139.559 833.020 139.437 C 847.625 138.003 867.133 136.425 881.781 135.527 C 895.105 134.710 912.893 133.907 926.240 133.622 C 939.244 133.344 956.594 133.347 969.599 133.622 C 985.890 133.966 1007.592 135.130 1023.865 135.969 C 1043.174 136.965 1068.935 138.179 1088.198 139.842 C 1116.333 142.271 1153.937 145.496 1181.719 150.563 C 1196.919 153.336 1217.442 156.956 1231.756 162.775 C 1240.382 166.282 1258.708 178.168 1258.711 178.170 "/>
</g>
<g id="Layer_6">
<path fill="#000000" fill-rule="evenodd" fill-opacity="0.000000" stroke="none" d="M 662.247 182.597 C 662.262 203.554 662.283 231.495 662.298 252.452 C 662.299 252.453 669.560 260.123 673.375 262.473 C 685.602 270.006 704.814 274.245 718.736 277.770 C 743.401 284.015 777.158 288.570 802.441 291.417 C 843.445 296.034 898.498 298.653 939.755 299.352 C 961.491 299.721 990.489 298.943 1012.207 297.972 C 1049.202 296.318 1098.565 293.499 1135.317 288.956 C 1157.280 286.241 1186.642 282.248 1208.043 276.615 C 1219.286 273.656 1234.556 269.642 1244.626 263.833 C 1249.510 261.016 1254.808 255.502 1259.171 251.932 C 1259.171 251.925 1258.863 200.716 1258.731 178.766 C 1258.728 178.764 1238.666 166.037 1229.200 162.457 C 1202.008 152.175 1162.815 148.198 1133.995 144.386 C 1097.982 139.623 1049.517 137.195 1013.226 135.571 C 983.236 134.229 943.184 133.061 913.173 133.808 C 884.634 134.519 846.646 137.470 818.226 140.178 C 793.503 142.533 760.418 145.420 736.060 150.268 C 722.404 152.986 704.296 157.484 691.241 162.325 C 684.952 164.657 676.487 167.941 670.969 171.754 C 668.910 173.177 666.330 175.401 664.840 177.412 C 663.804 178.809 662.247 182.597 662.247 182.597 Z"/>
<path fill="none" stroke="#000000" stroke-width="4" stroke-linecap="round" stroke-linejoin="round" d="M 662.298 252.452 C 662.298 252.452 662.298 252.452 662.298 252.452 C 662.283 231.495 662.262 203.554 662.247 182.597 C 662.247 182.597 663.804 178.809 664.840 177.412 C 666.330 175.401 668.910 173.177 670.969 171.754 C 676.487 167.941 684.952 164.657 691.241 162.325 C 704.296 157.484 722.404 152.986 736.060 150.268 C 760.418 145.420 793.503 142.533 818.226 140.178 C 846.646 137.470 884.634 134.519 913.173 133.808 C 943.184 133.061 983.236 134.229 1013.226 135.571 C 1049.517 137.195 1097.982 139.623 1133.995 144.386 C 1162.815 148.198 1202.008 152.175 1229.200 162.457 C 1238.666 166.037 1258.728 178.764 1258.731 178.766 C 1258.731 178.766 1258.731 178.766 1258.731 178.766 C 1258.863 200.716 1259.171 251.925 1259.171 251.932 C 1259.171 251.932 1259.171 251.932 1259.171 251.932 C 1254.808 255.502 1249.510 261.016 1244.626 263.833 C 1234.556 269.642 1219.286 273.656 1208.043 276.615 C 1186.642 282.248 1157.280 286.241 1135.317 288.956 C 1098.565 293.499 1049.202 296.318 1012.207 297.972 C 990.489 298.943 961.491 299.721 939.755 299.352 C 898.498 298.653 843.445 296.034 802.441 291.417 C 777.158 288.570 743.401 284.015 718.736 277.770 C 704.814 274.245 685.602 270.006 673.375 262.473 C 669.560 260.123 662.299 252.453 662.298 252.452 "/>
<path fill="none" stroke="#000000" stroke-width="4" stroke-linecap="round" stroke-linejoin="round" d="M 662.752 184.536 C 662.754 184.538 677.932 198.405 685.486 202.829 C 697.222 209.702 714.666 215.548 727.778 219.161 C 751.446 225.681 784.207 229.224 808.605 231.953 C 837.774 235.215 876.913 237.064 906.241 238.226 C 928.951 239.126 959.262 239.617 981.989 239.458 C 1004.852 239.298 1035.343 238.540 1058.164 237.150 C 1082.796 235.649 1115.587 232.650 1140.075 229.602 C 1156.562 227.549 1178.614 224.856 1194.807 221.138 C 1202.308 219.415 1212.402 217.043 1219.404 213.848 C 1229.016 209.461 1241.574 202.227 1248.914 194.627 C 1252.618 190.791 1258.515 179.670 1258.516 179.668 "/>
</g>
<g id="Layer_4">
<path fill="#989898" fill-rule="evenodd" stroke="none" d="M 875.541 168.779 C 875.541 168.779 875.541 168.779 875.541 168.779 C 864.599 168.834 850.009 168.909 839.067 168.965 C 839.067 168.965 839.067 168.965 839.067 168.965 C 840.659 159.413 842.662 146.657 844.373 137.126 C 846.135 127.314 847.720 114.022 850.655 104.494 C 852.255 99.300 854.331 92.092 857.633 87.775 C 860.274 84.323 864.955 80.416 868.974 78.761 C 870.890 77.972 873.741 77.908 875.807 77.743 C 881.247 77.311 888.541 77.786 893.998 77.794 C 906.501 77.813 923.171 77.772 935.674 77.794 C 956.448 77.831 984.147 78.088 1004.921 78.051 C 1016.286 78.031 1031.441 77.559 1042.804 77.800 C 1045.448 77.856 1049.061 77.483 1051.614 78.177 C 1055.021 79.105 1059.375 81.406 1061.934 83.841 C 1064.378 86.167 1066.450 90.336 1067.849 93.406 C 1070.910 100.126 1072.935 109.880 1074.663 117.060 C 1078.398 132.570 1084.443 169.326 1084.444 169.332 C 1079.009 169.139 1071.763 168.835 1066.326 168.690 C 1060.939 168.547 1048.369 168.370 1048.367 168.370 C 1046.275 156.786 1043.971 141.243 1041.393 129.758 C 1040.542 125.968 1039.958 120.653 1038.125 117.229 C 1036.714 114.594 1034.200 111.162 1031.588 109.711 C 1029.126 108.344 1025.121 108.531 1022.327 108.186 C 1017.624 107.605 1011.315 107.128 1006.580 106.950 C 994.410 106.492 978.164 107.258 965.986 107.398 C 954.735 107.527 939.731 107.578 928.482 107.847 C 920.838 108.030 910.571 107.603 903.009 108.739 C 899.110 109.325 893.631 109.920 890.272 111.984 C 888.113 113.311 885.714 115.947 884.552 118.199 C 883.125 120.965 883.093 125.314 882.518 128.373 C 880.246 140.462 875.542 168.775 875.541 168.779 C 875.541 168.779 875.541 168.779 875.541 168.779 Z"/>
<path fill="none" stroke="#000000" stroke-width="4" stroke-opacity="0.000000" stroke-linecap="round" stroke-linejoin="round" d="M 1048.367 168.370 C 1048.367 168.370 1048.367 168.370 1048.367 168.370 C 1048.369 168.370 1060.939 168.547 1066.326 168.690 C 1071.763 168.835 1079.009 169.139 1084.444 169.332 C 1084.444 169.332 1084.444 169.332 1084.444 169.332 C 1084.443 169.326 1078.398 132.570 1074.663 117.060 C 1072.935 109.880 1070.910 100.126 1067.849 93.406 C 1066.450 90.336 1064.378 86.167 1061.934 83.841 C 1059.375 81.406 1055.021 79.105 1051.614 78.177 C 1049.061 77.483 1045.448 77.856 1042.804 77.800 C 1031.441 77.559 1016.286 78.031 1004.921 78.051 C 984.147 78.088 956.448 77.831 935.674 77.794 C 923.171 77.772 906.501 77.813 893.998 77.794 C 888.541 77.786 881.247 77.311 875.807 77.743 C 873.741 77.908 870.890 77.972 868.974 78.761 C 864.955 80.416 860.274 84.323 857.633 87.775 C 854.331 92.092 852.255 99.300 850.655 104.494 C 847.720 114.022 846.135 127.314 844.373 137.126 C 842.662 146.657 840.659 159.413 839.067 168.965 C 850.009 168.909 864.599 168.834 875.541 168.779 C 875.541 168.779 875.541 168.779 875.541 168.779 C 875.542 168.775 880.246 140.462 882.518 128.373 C 883.093 125.314 883.125 120.965 884.552 118.199 C 885.714 115.947 888.113 113.311 890.272 111.984 C 893.631 109.920 899.110 109.325 903.009 108.739 C 910.571 107.603 920.838 108.030 928.482 107.847 C 939.731 107.578 954.735 107.527 965.986 107.398 C 978.164 107.258 994.410 106.492 1006.580 106.950 C 1011.315 107.128 1017.624 107.605 1022.327 108.186 C 1025.121 108.531 1029.126 108.344 1031.588 109.711 C 1034.200 111.162 1036.714 114.594 1038.125 117.229 C 1039.958 120.653 1040.542 125.968 1041.393 129.758 C 1043.971 141.243 1046.275 156.786 1048.367 168.370 M 839.067 168.965 C 839.067 168.965 839.067 168.965 839.067 168.965 M 875.541 168.779 C 875.541 168.779 875.541 168.779 875.541 168.779 "/>
</g>
<g id="Layer_5">
<path fill="#000000" fill-rule="evenodd" fill-opacity="0.000000" stroke="none" d="M 875.715 169.079 C 875.715 169.079 875.715 169.079 875.715 169.079 C 864.507 169.107 849.564 169.144 838.356 169.172 C 838.356 169.172 844.436 138.003 847.163 124.669 C 848.675 117.272 850.038 107.231 852.342 100.042 C 853.522 96.361 855.074 91.289 857.367 88.178 C 859.924 84.708 864.517 80.851 868.393 78.966 C 870.101 78.135 874.534 77.431 874.535 77.431 C 926.725 77.668 1048.483 78.222 1048.501 78.222 C 1049.828 78.517 1051.655 78.720 1052.925 79.206 C 1056.138 80.435 1060.357 82.641 1062.758 85.105 C 1065.868 88.296 1068.285 93.976 1069.887 98.133 C 1072.550 105.045 1073.769 114.975 1075.295 122.224 C 1078.247 136.249 1084.426 169.114 1084.427 169.119 C 1073.537 169.052 1048.130 168.896 1048.126 168.896 C 1047.920 167.958 1047.627 166.711 1047.437 165.770 C 1045.044 153.912 1042.957 137.891 1040.451 126.057 C 1039.863 123.282 1039.522 119.396 1038.244 116.864 C 1037.080 114.556 1034.934 111.592 1032.729 110.245 C 1030.605 108.947 1027.105 108.740 1024.639 108.406 C 1013.705 106.925 998.901 107.742 987.868 107.671 C 964.260 107.520 932.764 107.408 909.177 108.406 C 905.863 108.546 901.360 108.323 898.146 109.142 C 894.368 110.104 888.910 111.693 886.379 114.658 C 883.771 117.711 883.610 123.616 882.702 127.527 C 879.842 139.840 875.716 169.075 875.715 169.079 C 875.715 169.079 875.715 169.079 875.715 169.079 Z"/>
<path fill="none" stroke="#000000" stroke-width="4" stroke-linecap="round" stroke-linejoin="round" d="M 874.535 77.431 C 874.535 77.431 874.535 77.431 874.535 77.431 C 874.534 77.431 870.101 78.135 868.393 78.966 C 864.517 80.851 859.924 84.708 857.367 88.178 C 855.074 91.289 853.522 96.361 852.342 100.042 C 850.038 107.231 848.675 117.272 847.163 124.669 C 844.436 138.003 838.356 169.172 838.356 169.172 C 849.564 169.144 864.507 169.107 875.715 169.079 C 875.715 169.079 875.715 169.079 875.715 169.079 C 875.716 169.075 879.842 139.840 882.702 127.527 C 883.610 123.616 883.771 117.711 886.379 114.658 C 888.910 111.693 894.368 110.104 898.146 109.142 C 901.360 108.323 905.863 108.546 909.177 108.406 C 932.764 107.408 964.260 107.520 987.868 107.671 C 998.901 107.742 1013.705 106.925 1024.639 108.406 C 1027.105 108.740 1030.605 108.947 1032.729 110.245 C 1034.934 111.592 1037.080 114.556 1038.244 116.864 C 1039.522 119.396 1039.863 123.282 1040.451 126.057 C 1042.957 137.891 1045.044 153.912 1047.437 165.770 C 1047.627 166.711 1047.920 167.958 1048.126 168.896 C 1048.126 168.896 1048.126 168.896 1048.126 168.896 C 1048.130 168.896 1073.537 169.052 1084.427 169.119 C 1084.427 169.119 1084.427 169.119 1084.427 169.119 C 1084.426 169.114 1078.247 136.249 1075.295 122.224 C 1073.769 114.975 1072.550 105.045 1069.887 98.133 C 1068.285 93.976 1065.868 88.296 1062.758 85.105 C 1060.357 82.641 1056.138 80.435 1052.925 79.206 C 1051.655 78.720 1049.828 78.517 1048.501 78.222 C 1048.501 78.222 1048.501 78.222 1048.501 78.222 C 1048.483 78.222 926.725 77.668 874.535 77.431 M 875.715 169.079 C 875.715 169.079 875.715 169.079 875.715 169.079 "/>
</g>
</g>
</svg>
